# xmcd
#
# Track frame offsets: 
#        150
#        14944
#        33996
#        48172
#        64326
#        79747
#        94030
#        108317
#        124673
#        148523
#        171400
#        186704
#        201278
#        215991
#
# Disc length: 3088 seconds
#
# Revision: 0
# Processed by: cddbd v1.5.2PL0 Copyright (c) Steve Scherf et al.
# Submitted via: ExactAudioCopy v0.99pb4
#
DISCID=d90c0e0e
DTITLE=Troy Turner  - Whole Lotta Blues 
DYEAR=2010
DGENRE=Blues
TTITLE0=Whole Lotta Blues
TTITLE1=Come To Your Senses
TTITLE2=Out On The Streets
TTITLE3=Not Ready
TTITLE4=Foolin' Yourself
TTITLE5=Fired On A Thursday
TTITLE6=Goin' Fishin'
TTITLE7=Never Too Big For The Blues
TTITLE8=Going Down
TTITLE9=Don't Push Your Luck
TTITLE10=Shortchanged
TTITLE11=Blue Hair Woman
TTITLE12=One Way Ticket
TTITLE13=Brand New Cadillac
EXTD=
EXTT0=
EXTT1=
EXTT2=
EXTT3=
EXTT4=
EXTT5=
EXTT6=
EXTT7=
EXTT8=
EXTT9=
EXTT10=
EXTT11=
EXTT12=
EXTT13=
PLAYORDER=
